<svg xmlns="http://www.w3.org/2000/svg" xmlns:xlink="http://www.w3.org/1999/xlink" viewBox="0 0 654.2027 297"><defs><linearGradient id="a" x1="157.5" y1="91" x2="157.5" y2="290" gradientUnits="userSpaceOnUse"><stop offset="0" stop-color="#ffcf3f"/><stop offset="0.9996" stop-color="#fbae17"/></linearGradient><linearGradient id="b" x1="42" y1="63.5" x2="273" y2="63.5" gradientUnits="userSpaceOnUse"><stop offset="0" stop-color="#fff"/><stop offset="0.9996" stop-color="#efefef"/></linearGradient></defs><title>logo_text</title><polygon points="76 98 76 263 106 290 207 290 239 258 236 94 163 91 135 118 100 95 76 98" style="fill:url(#a)"/><polyline points="71 28 42 60 71 101 96 94 135 118 169 88 223 97 273 84 264 37 175 9" style="fill:url(#b)"/><path d="M283.6355,63.342a45.5734,45.5734,0,0,0-45.522-45.522,63.5533,63.5533,0,0,0-15.17,1.704C214.1415,7.711,199.5,0,184.6555,0a45.5236,45.5236,0,0,0-26.73,8.685,45.501,45.501,0,0,0-64.757,11.818,45.524,45.524,0,1,0-28.335,86.486v7.165H42.1005c-23.434,0-42.499,20.396-42.499,45.465v42.993c0,25.069,19.065,45.464,42.499,45.464h22.732v3.46A45.516,45.516,0,0,0,110.2965,297h91.917a45.5167,45.5167,0,0,0,45.464-45.464V107.845A45.5976,45.5976,0,0,0,283.6355,63.342ZM42.1005,228.31c-12.535,0-22.732-11.527-22.732-25.697V159.62c0-14.17,10.197-25.697,22.732-25.697h22.732v94.388H42.1005Zm160.114,48.923h-91.917a25.7253,25.7253,0,0,1-25.697-25.697V108.339a45.3036,45.3036,0,0,0,8.568-2.159,45.5169,45.5169,0,0,0,78.98-5.145c9.15,5.583,20.45,7.829,30.326,7.829a45.538,45.538,0,0,0,17.819-3.635,45.5059,45.5059,0,0,0,7.617,2.461V251.537A25.7236,25.7236,0,0,1,202.2145,277.233Zm35.898-188.136a25.7068,25.7068,0,0,1-12.867-3.45,9.8837,9.8837,0,0,0-9.903,0,25.715,25.715,0,0,1-12.867,3.45c-10.555,0-22.882-3.713-26.634-12.008a9.8836,9.8836,0,0,0-18.889,4.072,25.7563,25.7563,0,0,1-50.06,8.526,9.8828,9.8828,0,0,0-14.832-4.936,25.7563,25.7563,0,1,1-.001-42.816,9.8839,9.8839,0,0,0,14.833-4.936,25.7479,25.7479,0,0,1,43.622-8.498,9.8814,9.8814,0,0,0,14.823,0,25.776,25.776,0,0,1,19.317-8.732c10.165,0,20.936,6.868,25.053,15.976a9.885,9.885,0,0,0,13.958,4.482c2.854-1.652,8.255-2.64,14.446-2.64a25.755,25.755,0,1,1,.001,51.51Z" transform="translate(0.3985)"/><path d="M197.0075,129.963a9.8839,9.8839,0,0,0-9.883,9.883v97.848a9.8835,9.8835,0,0,0,19.767,0V139.846A9.8841,9.8841,0,0,0,197.0075,129.963Z" transform="translate(0.3985)"/><path d="M156.2385,129.963a9.8839,9.8839,0,0,0-9.883,9.883v97.848a9.8835,9.8835,0,0,0,19.767,0V139.846A9.8848,9.8848,0,0,0,156.2385,129.963Z" transform="translate(0.3985)"/><path d="M115.4685,129.963a9.8839,9.8839,0,0,0-9.883,9.883v97.848a9.8835,9.8835,0,0,0,19.767,0V139.846A9.8841,9.8841,0,0,0,115.4685,129.963Z" transform="translate(0.3985)"/><path d="M336.71,95.15a33.5527,33.5527,0,0,1,27.1494,12.75v-3.3794a6.3576,6.3576,0,0,1-.3-1.0762q-.3018-3.3778-.3-3.0722,0-5.2208,4.6543-5.2222,4.9438,0,4.9453,6.3,0,1.2019-.3,7.2A103.8842,103.8842,0,0,0,371.66,119a68.0287,68.0287,0,0,0,.5127,8.25l.6865,5.7v1.5q0,6.75-5.3994,6.75-5.8506,0-5.7-6.3965v-5.3555q.2988-10.7079-6.7314-17.4043-7.0312-6.6942-18.4034-6.6938-14.811,0-23.1884,11.4t-8.377,31.5q0,20.5518,8.625,32.0254T337.7593,191.75a28.4869,28.4869,0,0,0,15.0752-4.05,22.1349,22.1349,0,0,0,9.375-10.65q1.8-4.3491,1.8-11.7,0-6.8964,5.7-6.8994,6.1479,0,6.1494,6.8994,0,16.0533-11.1,26.25-11.1021,10.2027-28.65,10.2-20.25,0-32.3242-14.25Q291.7085,173.3013,291.71,149.6q0-24.4467,12.375-39.45Q316.46,95.1521,336.71,95.15Z" transform="translate(0.3985)"/><path d="M410.0581,127.7773V131.9q7.7974-10.9475,20.85-10.95,10.4986,0,17.0254,5.9248A19.64,19.64,0,0,1,454.4585,142.1q0,6.6036-3.3008,10.7256a10.5925,10.5925,0,0,1-8.6992,4.125,8.5584,8.5584,0,0,1-5.8506-2.1006,6.527,6.527,0,0,1-2.3994-5.1,6.0111,6.0111,0,0,1,1.8-4.2754,5.65,5.65,0,0,1,4.2-1.875,9.162,9.162,0,0,1,1.9492.45,7.4566,7.4566,0,0,0,.9-3.3,9.0438,9.0438,0,0,0-3.8252-7.35,14.9666,14.9666,0,0,0-9.5244-3q-11.7012,0-15.6006,10.5-2.4007,6.4512-2.3994,19.5V170.3q0,10.0518.1494,11.25.7487,8.55,4.65,8.55a17.0821,17.0821,0,0,0,4.05-.5127,12.7512,12.7512,0,0,1,2.85-.3867q4.799,0,4.8008,4.7275,0,5.174-6.1289,5.1719h-.5976a65.8546,65.8546,0,0,1-6.8047-.5244,65.58,65.58,0,0,0-6.8008-.5254q-5.981,0-9.418.3l-8.3711.75q-6.1318,0-6.1289-5.25,0-4.6464,5.751-4.6494a12.9357,12.9357,0,0,1,2.2715.1494l2.2705.45a12.6021,12.6021,0,0,0,2.1191.3q3.7823,0,4.0879-6.8994v-7.65l-.45-34.05q-.45-8.8491-4.5-8.85a16.7449,16.7449,0,0,0-3.3.45,16.8368,16.8368,0,0,1-3.3008.45q-4.95,0-4.9492-4.8,0-5.2485,6.4492-5.25a40.1806,40.1806,0,0,1,4.5.375,39.55,39.55,0,0,0,4.5.375,31.969,31.969,0,0,0,3.9-.375,9.64,9.64,0,0,1,2.85-.375Q410.0573,123.5,410.0581,127.7773Z" transform="translate(0.3985)"/><path d="M525.5572,200.45q-12.3,0-15.1495-10.65-7.6507,11.25-24,11.25-12.1507,0-19.4248-6-7.2772-5.997-7.2754-16.05,0-12.4482,10.65-18.3a27.8655,27.8655,0,0,1,6.9746-2.9248q2.9253-.6753,11.7754-1.7256,12.5993-1.3491,16.4248-3.75,3.8247-2.3979,3.8252-8.85a11.8679,11.8679,0,0,0-4.2754-9.6753q-4.2744-3.5222-11.9248-3.5249a22.9338,22.9338,0,0,0-12.6,3.75q-2.25,1.5015-2.25,3.15,0,.6006,1.35,1.5,2.0993,1.5,2.1,5.1a6.3584,6.3584,0,0,1-2.1749,4.95,7.8952,7.8952,0,0,1-5.4746,1.95,8.7286,8.7286,0,0,1-6.5254-2.7,9.1051,9.1051,0,0,1-2.625-6.6006q0-8.3979,8.3252-14.3994,8.3247-5.9977,20.1748-6,27.2989,0,27.3,26.1934v30.2373a63.632,63.632,0,0,0,.3,8.5312q.9008,5.2383,5.1005,5.2383,5.2486,0,5.25-9.5352v-7.2978q0-4.768,4.5772-4.7676,4.872,0,4.873,7.2v9.3Q540.5548,200.4507,525.5572,200.45ZM508.9077,170.6V159.95a19.1818,19.1818,0,0,1-6.9472,4.2q-3.6636,1.2012-13.0713,2.1-17.0333,1.6524-17.0313,12.6a10.8965,10.8965,0,0,0,4.125,9q4.1237,3.3018,11.1748,3.3008,10.0475,0,15.8252-5.4756Q508.7545,180.2007,508.9077,170.6Z" transform="translate(0.3985)"/><path d="M590.0572,109.85a5.4218,5.4218,0,0,1,1.5-3.75q-2.5518-2.3979-7.5-2.4-6.4512,0-10.125,4.125-3.6768,4.1273-3.6748,11.4746V122a1.7232,1.7232,0,0,0,1.95,1.95h11.6993q4.9511,0,4.95,5.4t-4.95,5.4h-11.1q-2.5518,0-2.55,2.7v42q0,5.55.1494,6.45.75,4.0488,3.75,4.05a22.4558,22.4558,0,0,0,3.75-.75,24.5032,24.5032,0,0,1,3-.3q5.0976,0,5.1006,4.9492,0,5.253-6.15,5.25a74.2113,74.2113,0,0,1-7.7246-.6,74.2667,74.2667,0,0,0-7.7256-.6,65.8323,65.8323,0,0,0-8.1.4492q-5.8506.75-7.5.75-6.4512,0-6.45-5.25a4.6412,4.6412,0,0,1,1.5752-3.4492,5.1624,5.1624,0,0,1,3.6748-1.5,12.7187,12.7187,0,0,1,3.375.5244,12.5787,12.5787,0,0,0,3.375.5254q2.8476,0,3.6005-3.6006.7486-3.5991.8995-17.3994v-31.5a2.3758,2.3758,0,0,0-2.6739-2.7h-7.4277q-5.1987,0-5.1982-5.55,0-5.2492,5.4-5.25h8.55a1.7243,1.7243,0,0,0,1.95-1.95v-2.7q0-11.8476,6.3-18.15,6.3-6.3,17.85-6.3,9.45,0,15.15,3.8247a11.815,11.815,0,0,1,5.7,10.2754,7.0615,7.0615,0,0,1-2.1005,5.3247,7.2641,7.2641,0,0,1-5.25,2.0249,7.1035,7.1035,0,0,1-5.0245-1.875A5.996,5.996,0,0,1,590.0572,109.85Z" transform="translate(0.3985)"/><path d="M643.1538,177.8v-9.6q.1481-6.1494,5.4-6.15,5.2485,0,5.25,6.9,0,16.3506-4.1718,22.8-5.66,8.7012-18.6211,8.7-11.9181,0-16.9834-7.65-3.7266-5.5473-3.7237-18.8994v-36q0-3.1509-2.916-3.15H602.481a5.5794,5.5794,0,0,1-4.0664-1.5752,5.1471,5.1471,0,0,1-1.61-3.8247,5.2871,5.2871,0,0,1,1.5752-3.75,4.7792,4.7792,0,0,1,3.5244-1.65h5.8506q2.5488,0,2.55-2.85V105.65q0-5.6989,5.85-5.7,5.4009,0,5.4,5.7V121.7q0,2.25,2.7,2.25h16.35q5.6984,0,5.7,5.25,0,5.5511-6.15,5.55h-16.5q-2.1019,0-2.1,3.15V174.8q0,15.75,10.4951,15.75Q642.6944,190.55,643.1538,177.8Z" transform="translate(0.3985)"/></svg>