<svg xmlns="http://www.w3.org/2000/svg" xmlns:xlink="http://www.w3.org/1999/xlink" viewBox="0 0 284.034 297"><defs><linearGradient id="a" x1="157.5" y1="91" x2="157.5" y2="290" gradientUnits="userSpaceOnUse"><stop offset="0" stop-color="#ffcf3f"/><stop offset="0.9996" stop-color="#fbae17"/></linearGradient><linearGradient id="b" x1="42" y1="63.5" x2="273" y2="63.5" gradientUnits="userSpaceOnUse"><stop offset="0" stop-color="#fff"/><stop offset="0.9996" stop-color="#efefef"/></linearGradient></defs><title>logo</title><polygon points="76 98 76 263 106 290 207 290 239 258 236 94 163 91 135 118 100 95 76 98" style="fill:url(#a)"/><polyline points="71 28 42 60 71 101 96 94 135 118 169 88 223 97 273 84 264 37 175 9" style="fill:url(#b)"/><path d="M284.051,63.342A45.5734,45.5734,0,0,0,238.529,17.82a63.5533,63.5533,0,0,0-15.17,1.704C214.557,7.711,199.915,0,185.071,0a45.5236,45.5236,0,0,0-26.73,8.685A45.501,45.501,0,0,0,93.584,20.503a45.524,45.524,0,1,0-28.335,86.486v7.165H42.516C19.082,114.154.017,134.55.017,159.619v42.993c0,25.069,19.065,45.464,42.499,45.464H65.248v3.46A45.516,45.516,0,0,0,110.712,297h91.917a45.5167,45.5167,0,0,0,45.464-45.464V107.845A45.5976,45.5976,0,0,0,284.051,63.342ZM42.516,228.31c-12.535,0-22.732-11.527-22.732-25.697V159.62c0-14.17,10.197-25.697,22.732-25.697H65.248v94.388H42.516ZM202.63,277.233H110.713a25.7253,25.7253,0,0,1-25.697-25.697V108.339a45.3036,45.3036,0,0,0,8.568-2.159,45.5169,45.5169,0,0,0,78.98-5.145c9.15,5.583,20.45,7.829,30.326,7.829a45.538,45.538,0,0,0,17.819-3.635,45.5059,45.5059,0,0,0,7.617,2.461V251.537A25.7236,25.7236,0,0,1,202.63,277.233ZM238.528,89.097a25.7068,25.7068,0,0,1-12.867-3.45,9.8837,9.8837,0,0,0-9.903,0,25.715,25.715,0,0,1-12.867,3.45c-10.555,0-22.882-3.713-26.634-12.008a9.8836,9.8836,0,0,0-18.889,4.072,25.7563,25.7563,0,0,1-50.06,8.526,9.8828,9.8828,0,0,0-14.832-4.936,25.7563,25.7563,0,1,1-.001-42.816,9.8839,9.8839,0,0,0,14.833-4.936,25.7479,25.7479,0,0,1,43.622-8.498,9.8814,9.8814,0,0,0,14.823,0,25.776,25.776,0,0,1,19.317-8.732c10.165,0,20.936,6.868,25.053,15.976a9.885,9.885,0,0,0,13.958,4.482c2.854-1.652,8.255-2.64,14.446-2.64a25.755,25.755,0,1,1,.001,51.51Z" transform="translate(-0.017)"/><path d="M197.423,129.963a9.8839,9.8839,0,0,0-9.883,9.883v97.848a9.8835,9.8835,0,0,0,19.767,0V139.846A9.8841,9.8841,0,0,0,197.423,129.963Z" transform="translate(-0.017)"/><path d="M156.654,129.963a9.8839,9.8839,0,0,0-9.883,9.883v97.848a9.8835,9.8835,0,0,0,19.767,0V139.846A9.8848,9.8848,0,0,0,156.654,129.963Z" transform="translate(-0.017)"/><path d="M115.884,129.963a9.8839,9.8839,0,0,0-9.883,9.883v97.848a9.8835,9.8835,0,0,0,19.767,0V139.846A9.8841,9.8841,0,0,0,115.884,129.963Z" transform="translate(-0.017)"/></svg>