<svg xmlns="http://www.w3.org/2000/svg" viewBox="0 0 3251.7083 599.9997"><title>Asset 2</title><path d="M211.89,287.6577a84.4408,84.4408,0,0,1-22.12,26.723,119.2146,119.2146,0,0,1-32.86,18.484,165.3618,165.3618,0,0,1-37.77,9.578,127.2977,127.2977,0,0,1-36.884-.4471q-17.8815-2.8905-30.398-11.8039l9.391-97.544q12.957-4.45,32.631-9.132a298.758,298.758,0,0,1,40.45-6.679,173.5035,173.5035,0,0,1,39.35.446q18.5248,2.4495,29.27,11.805a59.6747,59.6747,0,0,1,9.84,11.578,31.4586,31.4586,0,0,1,4.92,12.918Q219.93,272.29,211.89,287.6577ZM75.546,79.8727a110.55,110.55,0,0,1,22.574-10.25,140.6455,140.6455,0,0,1,27.05-6.233,118.4769,118.4769,0,0,1,27.05-.447,55.6985,55.6985,0,0,1,23.24,7.346A36.5009,36.5009,0,0,1,190.43,87.66q4.92,11.367,2.69,28.734a40.4193,40.4193,0,0,1-10.95,23.383,78.1523,78.1523,0,0,1-22.35,16.037,144.8694,144.8694,0,0,1-27.94,10.239,236.6489,236.6489,0,0,1-28.39,5.572q-13.635,1.788-23.69,2.226-10.0635.45-13.191.447ZM260.17,224.6287a91.2577,91.2577,0,0,0-19.22-27.395,72.0207,72.0207,0,0,0-28.61-17.144q7.155-5.79,14.08-18.263a160.8,160.8,0,0,0,11.85-27.169,149.5557,149.5557,0,0,0,6.7-29.622q1.785-14.9175-1.33-25.615-7.62-26.7165-23.93-41.867a88.7365,88.7365,0,0,0-37.99-20.936q-21.69-5.772-47.83-2.447A252.3859,252.3859,0,0,0,80.469,27.31a25.897,25.897,0,0,1,.448-4.674,29.2913,29.2913,0,0,0,.442-5.125q0-6.6795-6.703-11.578A31.0216,31.0216,0,0,0,59.236.1407a28.0913,28.0913,0,0,0-16.991,3.786q-8.277,4.6785-11.399,17.144-3.582,40.092-7.152,83.293-3.5805,43.2105-7.599,87.31-4.0245,44.0925-8.048,87.519Q4.024,322.6252,0,362.7057q1.344,12.0285,6.709,18.71,5.36,6.6885,12.516,8.019,7.146,1.3395,14.973-2.453,7.8165-3.771,13.639-13.138a113.1441,113.1441,0,0,0,40.233,12.697,178.7467,178.7467,0,0,0,45.37,0,212.4431,212.4431,0,0,0,45.37-10.917,191.952,191.952,0,0,0,40.68-20.038,134.8071,134.8071,0,0,0,30.85-27.395,80.3155,80.3155,0,0,0,16.54-33.181,116.28,116.28,0,0,0,2.23-36.527A105.1593,105.1593,0,0,0,260.17,224.6287Z" style="fill:#0d0c23;fill-rule:evenodd"/><path d="M696.27,459.8017a313.5648,313.5648,0,0,1-6.93,30.961,204.1891,204.1891,0,0,1-10.51,29.6209q-6.03,13.3592-13.4,21.5981-7.3952,8.238-15.88,6.91-6.705-.906-8.49-8.464-1.7852-7.587,0-18.71a137.4637,137.4637,0,0,1,6.93-25.169,218.652,218.652,0,0,1,12.51-27.836,215.6763,215.6763,0,0,1,16.77-26.502,118.1107,118.1107,0,0,1,19.67-21.156q2.2353,2.67,2.01,13.364A182.7385,182.7385,0,0,1,696.27,459.8017Zm151.54-193.308a22.3759,22.3759,0,0,0-14.75-7.572q-8.7152-.8895-17.66,9.799a104.7561,104.7561,0,0,1-14.75,20.489,189.5012,189.5012,0,0,1-18.56,17.817,210.6207,210.6207,0,0,1-18.32,13.8049q-8.715,5.7977-13.64,8.4651a278.4345,278.4345,0,0,1-2.01-30.735q-.24-16.4775.67-33.401a418.7587,418.7587,0,0,1,5.59-48.552,317.003,317.003,0,0,1,12.29-48.111q0-12.459-5.81-20.263-5.82-7.791-14.08-9.799c-5.52-1.334-11.17-.593-16.99,2.226q-8.715,4.239-14.97,15.365-5.37,14.706-12.29,32.961-6.945,18.2655-15.65,37.194a374.9836,374.9836,0,0,1-19.45,36.747,193.05,193.05,0,0,1-23.47,31.627,101.5456,101.5456,0,0,1-27.71,21.603,62.0506,62.0506,0,0,1-32.41,6.905q-8.055-2.229-11.63-12.03-3.57-9.7905-4.24-24.496a203.7218,203.7218,0,0,1,1.34-32.295q2.01-17.5875,5.36-34.961,3.36-17.376,7.38-32.961,4.02-15.588,7.6-26.282,5.37-12.909,0-21.603a25.8961,25.8961,0,0,0-14.75-11.584,33.0262,33.0262,0,0,0-19.67.226q-10.29,3.1185-14.75,13.805a345.9929,345.9929,0,0,0-13.86,40.979,420.99,420.99,0,0,0-10.06,46.992,351.5165,351.5165,0,0,0-4.25,48.111c-.02,1.034.03,2.017.03,3.046-6.5,17.263-12.7,30.311-18.58,39.041q-11.4,16.9365-25.7,14.698-6.27-2.67-8.27-12.471-2.0251-9.7905-1.35-24.056.69-14.2395,3.35-32.288,2.7-18.0375,6.71-37.414,4.0349-19.386,8.49-38.974,4.47-19.596,8.06-36.973-.45-15.588-9.17-23.829-8.7151-8.23-24.36-6.459-10.725,4.458-15.88,11.584-5.145,7.1205-8.26,18.258-1.8,5.7975-5.37,23.168-3.585,17.3595-9.16,39.861-5.595,22.503-13.19,46.992a338.1692,338.1692,0,0,1-16.98,44.319q-9.4051,19.8165-20.57,31.848-11.175,12.018-24.14,9.798-7.155-1.3395-9.16-14.698-2.01-13.3665-.67-32.961a426.3624,426.3624,0,0,1,5.36-42.98q4.02-23.385,8.27-44.324,4.245-20.928,7.83-36.968,3.57-16.0365,4.91-21.377,0-12.918-5.81-20.716-5.82-7.78-14.08-9.798-8.28-2.001-16.99,2.226-8.7151,4.239-14.98,15.365-2.235,12.027-5.81,27.841-3.585,15.8085-6.92,32.515-3.36,16.707-6.26,32.741-2.91,16.0365-4.25,28.061-.9,9.35-2.01,22.937-1.125,13.596-1.12,28.7289a201.2747,201.2747,0,0,0,2.24,30.0671,99,99,0,0,0,8.04,27.39,53.8986,53.8986,0,0,0,16.32,20.49q10.5,8.0175,26.6,8.911,16.53.882,28.83-2.453a70.0912,70.0912,0,0,0,22.35-10.47,97.9437,97.9437,0,0,0,18.33-16.925q8.265-9.789,16.32-21.377,7.59,16.9365,19.67,26.282,12.06,9.3495,25.48,11.132a53.3854,53.3854,0,0,0,27.27-3.786q13.845-5.56,25.03-18.93a138.0586,138.0586,0,0,0,13.88-18.54,80.0746,80.0746,0,0,0,6.01,9.182q10.965,14.2665,29.74,19.603a88.4715,88.4715,0,0,0,39.33,1.7859,125.5012,125.5012,0,0,0,36.65-12.9179,172.9411,172.9411,0,0,0,32.42-22.496,204.513,204.513,0,0,0,26.15-27.395q-.4648,10.248-.45,19.377,0,9.1365-.45,19.823a253.7948,253.7948,0,0,0-42.24,37.414,297.7779,297.7779,0,0,0-34.87,46.545,248.8906,248.8906,0,0,0-23.46,50.106q-8.505,25.4025-8.28,47.444.2252,22.0455,10.5,38.521,10.29,16.4865,33.53,23.609,24.15,7.578,42.47.447,18.33-7.13,31.96-23.609,13.635-16.479,22.36-39.861a322.225,322.225,0,0,0,13.85-48.772,345.961,345.961,0,0,0,6.48-49.885,351.9777,351.9777,0,0,0,0-43.658q38.445-16.029,63.03-40.533a260.2092,260.2092,0,0,0,40.68-51.666q4.92-6.678,3.36-16.031A31.0857,31.0857,0,0,0,847.81,266.4937Z" style="fill:#0d0c23;fill-rule:evenodd"/><path d="M1411.72,237.9917a215.0445,215.0445,0,0,1,4.02-21.603,177.1679,177.1679,0,0,1,6.71-22.049,85.1954,85.1954,0,0,1,9.38-18.484q5.37-7.79,11.4-11.137,6.045-3.3315,12.3.666,6.705,4.0185,8.27,16.924,1.5451,12.936-3.13,27.621-4.71,14.7075-16.77,27.616-12.06,12.9255-32.63,16.924Q1410.37,248.2477,1411.72,237.9917Zm154.89,18.258a25.48,25.48,0,0,0-14.08-.441c-4.47,1.187-7.31,4.306-8.49,9.358a133.0271,133.0271,0,0,1-11.41,29.169,153.1077,153.1077,0,0,1-19.21,28.288,143.6237,143.6237,0,0,1-25.71,23.603,96.7371,96.7371,0,0,1-29.95,14.698q-15.66,4.908-25.93,1.113a32.5065,32.5065,0,0,1-16.31-12.912,62.8318,62.8318,0,0,1-8.72-22.049,155.0716,155.0716,0,0,1-3.13-26.728q25.47,1.788,45.38-9.132a107.0474,107.0474,0,0,0,33.74-28.949,131.1893,131.1893,0,0,0,21.01-40.533,170.189,170.189,0,0,0,8.05-44.766q.4347-20.9355-6.26-35.407-6.705-14.469-18.11-22.496a52.7888,52.7888,0,0,0-26.15-9.352,70.391,70.391,0,0,0-29.95,4.006,72.9265,72.9265,0,0,0-31.06,20.27,126.3894,126.3894,0,0,0-21.24,32.514,205.8926,205.8926,0,0,0-13.41,39.861,359.9188,359.9188,0,0,0-7.15,42.098c-1.34,12.392-2.06,24.242-2.31,35.679-.64,1.4529-1.26,2.848-1.94,4.402a266.4876,266.4876,0,0,1-16.09,30.961,114.5079,114.5079,0,0,1-20.34,25.389q-11.1753,10.248-23.25,7.126-7.14-1.7715-7.82-16.478a256.0046,256.0046,0,0,1,1.56-36.527q2.25-21.8177,5.15-47.218a428.9668,428.9668,0,0,0,2.9-48.546,100.3367,100.3367,0,0,0-7.6-38.532A85.933,85.933,0,0,0,1268,133.99a65.9389,65.9389,0,0,0-30.62-16.258q-17.4448-4.017-37.55,5.34-20.13,9.3585-31.96,26.282a326.9891,326.9891,0,0,0-21.69,35.634,106.08,106.08,0,0,0-10.5-26.502,85.72,85.72,0,0,0-16.99-21.383,76.8276,76.8276,0,0,0-22.57-14.251,69.17,69.17,0,0,0-26.38-5.12,59.9375,59.9375,0,0,0-24.81,5.12,86.4181,86.4181,0,0,0-20.79,13.138,115.2956,115.2956,0,0,0-16.99,18.043,210.0393,210.0393,0,0,0-13.4,19.817q-.915-11.5785-2.02-20.269a47.8812,47.8812,0,0,0-4.02-14.692,20.6006,20.6006,0,0,0-8.27-9.132q-5.37-3.111-15.19-3.119a25.8876,25.8876,0,0,0-9.84,2,28,28,0,0,0-8.72,5.572,22.7673,22.7673,0,0,0-6.93,20.49,63.6952,63.6952,0,0,0,2.46,11.804,156.4579,156.4579,0,0,1,3.8,18.037q1.785,11.139,2.9,26.949,1.125,15.816.67,38.753-.45,22.9455-3.35,53.671-2.91,30.735-9.16,71.263-.9,9.357,7.15,15.149a37.449,37.449,0,0,0,37.77,3.119q9.165-4.4655,10.51-15.59,1.335-20.9355,5.14-44.545,3.7952-23.598,9.39-46.766,5.58-23.157,12.74-44.099a239.2882,239.2882,0,0,1,15.87-36.967q8.715-16.038,18.1-25.61,9.39-9.5775,19.67-9.578,12.525,0,19.45,11.353,6.915,11.3655,9.83,29.175a228.493,228.493,0,0,1,2.69,38.979q-.24,21.156-1.79,40.753-1.575,19.6064-3.58,34.967-2.01,15.3675-2.9,21.157a19.4309,19.4309,0,0,0,7.81,16.257,34.7022,34.7022,0,0,0,17.44,7.126,29.5963,29.5963,0,0,0,18.11-3.566q8.49-4.6785,9.83-15.811,4.47-32.0655,12.29-64.357a445.1421,445.1421,0,0,1,17.89-57.903q10.05-25.6155,22.35-41.872,12.2849-16.2495,26.15-16.258,7.14,0,10.95,9.799,3.7951,9.798,3.8,26.722a169.2711,169.2711,0,0,1-2.01,25.615q-2.01,13.1385-4.7,27.169-2.67,14.037-4.69,28.729a226.8264,226.8264,0,0,0-2.01,30.734,174.4,174.4,0,0,0,2.23,25.836,99.002,99.002,0,0,0,8.49,27.836,64.9628,64.9628,0,0,0,17.22,22.269q10.95,9.129,27.93,9.132,25.4849,0,45.16-10.912a113.1093,113.1093,0,0,0,33.75-28.502c.48-.616.93-1.272,1.4-1.882.72,1.735,1.36,3.571,2.17,5.222q9.6153,19.5959,26.16,30.2879,16.515,10.6875,38.89,11.8041,22.35,1.1023,48.73-8.244a135.1586,135.1586,0,0,0,34.19-17.817,127.8085,127.8085,0,0,0,26.15-26.056,207.4656,207.4656,0,0,0,21.24-35.408q9.615-20.055,19.44-45.884a13.0564,13.0564,0,0,0-3.35-12.692A27.6816,27.6816,0,0,0,1566.61,256.25Z" style="fill:#0d0c23;fill-rule:evenodd"/><path d="M1809.57,206.5737q-2.25,13.146-6.04,28.954-3.81,15.8175-9.61,32.741a148.2438,148.2438,0,0,1-14.3,30.509,76.7141,76.7141,0,0,1-19.45,21.603,35.7034,35.7034,0,0,1-25.26,6.679q-7.155-.882-10.95-9.799-3.81-8.8995-4.03-22.716a172.0658,172.0658,0,0,1,2.46-30.288,186.7808,186.7808,0,0,1,8.28-32.294,160.099,160.099,0,0,1,13.62-29.175q8.0549-13.359,18.56-20.71a36.9621,36.9621,0,0,1,23.02-6.906q12.51.45,26.83,12.472C1812.09,191.5087,1811.06,197.8207,1809.57,206.5737Zm158.91,34.074a19.253,19.253,0,0,0-14.3-1.554q-7.38,2.001-10.51,13.584-1.7849,12.477-8.04,29.396a188.0176,188.0176,0,0,1-15.42,32.068,101.3093,101.3093,0,0,1-21.02,25.1689q-11.85,10.0275-25.25,9.1261-11.19-.882-15.65-11.353-4.485-10.467-4.69-26.282a198.27,198.27,0,0,1,3.12-35.628q3.36-19.8165,8.05-39.425,4.6948-19.5885,9.62-37.635,4.905-18.036,8.04-30.508,3.5853-11.1375-2.24-18.936a32.265,32.265,0,0,0-14.52-11.132,32.8137,32.8137,0,0,0-17.67-1.78c-5.96,1.04-9.82,4.232-11.62,9.572q-26.37-22.716-50.73-24.496a74.1624,74.1624,0,0,0-44.93,10.692q-20.565,12.468-36.43,36.08a231.5362,231.5362,0,0,0-38,108.235q-2.46,28.9545,3.8,52.784,6.27,23.8259,22.13,38.968,15.855,15.147,43.14,15.15a57.287,57.287,0,0,0,23.24-4.9,115.3857,115.3857,0,0,0,20.57-11.5841,120.8566,120.8566,0,0,0,16.54-14.0309q7.14-7.3485,11.17-12.25,3.12,16.0365,10.28,27.174a72.2329,72.2329,0,0,0,16.32,18.2579,64.42,64.42,0,0,0,19.22,10.4711,61.636,61.636,0,0,0,19.45,3.3389q21.015,0,39.34-14.2569a161.0463,161.0463,0,0,0,32.86-34.961,223.0893,223.0893,0,0,0,23.91-43.652q9.39-22.9365,12.51-40.759,3.1352-6.68-1.11-14.026A27.308,27.308,0,0,0,1968.48,240.6477Z" style="fill:#0d0c23;fill-rule:evenodd"/><path d="M2773.14,486.5457q-3.7947,15.1395-11.84,25.61-8.04,10.4685-20.12,10.917-7.59.441-11.62-8.018-4.02-8.4677-5.59-21.824a229.9844,229.9844,0,0,1-1.34-29.8471q.2252-16.4773,1.34-32.5149,1.11-16.0275,2.69-29.842,1.545-13.815,2.45-21.376a38.6147,38.6147,0,0,1,25.26,13.138,78.7327,78.7327,0,0,1,15.42,26.948,121.3383,121.3383,0,0,1,6.26,33.628A113.3326,113.3326,0,0,1,2773.14,486.5457Zm-161.82,0q-3.7951,15.1395-11.85,25.61-8.04,10.4685-20.11,10.917-7.6051.441-11.62-8.018-4.035-8.4677-5.59-21.824a228.2269,228.2269,0,0,1-1.34-29.8471q.21-16.4773,1.34-32.5149,1.11-16.0275,2.68-29.842,1.56-13.815,2.46-21.376a38.5679,38.5679,0,0,1,25.25,13.138,78.7549,78.7549,0,0,1,15.43,26.948,121.3456,121.3456,0,0,1,6.26,33.628A113.326,113.326,0,0,1,2611.32,486.5457Zm-166.06-252.991a134.0515,134.0515,0,0,1-2.02,18.925c-1.05,5.503-2.46,8.984-4.25,10.47q-4.92-2.6775-12.07-13.81a94.5961,94.5961,0,0,1-11.18-25.169,70.2918,70.2918,0,0,1-2.45-27.615q1.5451-13.58,14.08-21.157,4.9047-2.67,8.49,2.006,3.5849,4.68,5.82,13.585a125.6992,125.6992,0,0,1,3.12,20.49A190.8237,190.8237,0,0,1,2445.26,233.5547Zm-39.57,88.859a79.45,79.45,0,0,1-15.42,12.691,70.7321,70.7321,0,0,1-17.44,8.019q-8.94,2.6775-16.09,1.3329-20.1148-4-30.84-17.37a65.7842,65.7842,0,0,1-13.64-31.396,115.794,115.794,0,0,1,.67-38.533,143.7219,143.7219,0,0,1,12.07-38.08,117.98,117.98,0,0,1,20.56-30.289q12.075-12.696,26.38-15.816a154.0209,154.0209,0,0,0-3.58,46.992,131.2836,131.2836,0,0,0,11.63,45.653,119.06,119.06,0,0,0,14.97,23.609,81.3981,81.3981,0,0,0,21.24,18.263A58.5965,58.5965,0,0,1,2405.69,322.4137Zm494.64-84.406a215.0906,215.0906,0,0,1,4.02-21.609,179.0632,179.0632,0,0,1,6.7-22.044,85.3983,85.3983,0,0,1,9.39-18.483q5.37-7.79,11.4-11.138,6.03-3.339,12.29.667,6.7053,4.017,8.27,16.924,1.56,12.9255-3.13,27.621-4.6952,14.697-16.76,27.61-12.06,12.9345-32.63,16.93Q2898.98,248.2547,2900.33,238.0077Zm180.15,0a215.1471,215.1471,0,0,1,4.02-21.609,180.86,180.86,0,0,1,6.71-22.044,85.8227,85.8227,0,0,1,9.38-18.483q5.37-7.79,11.4-11.138,6.045-3.339,12.3.667,6.705,4.017,8.27,16.924,1.56,12.9255-3.13,27.621-4.6948,14.697-16.77,27.61-12.06,12.9345-32.63,16.93Q3079.1448,248.2547,3080.48,238.0077Zm167.41,26.056a27.6958,27.6958,0,0,0-12.51-7.798,25.4474,25.4474,0,0,0-14.09-.441q-6.7053,1.779-8.49,9.352a132.7647,132.7647,0,0,1-11.4,29.169,152.8018,152.8018,0,0,1-19.22,28.2879,143.6052,143.6052,0,0,1-25.7,23.6091,96.8221,96.8221,0,0,1-29.95,14.692q-15.66,4.917-25.94,1.119a32.5383,32.5383,0,0,1-16.31-12.912,62.87,62.87,0,0,1-8.72-22.055,156.9244,156.9244,0,0,1-3.13-26.723q25.485,1.7895,45.38-9.1311a107.1773,107.1773,0,0,0,33.75-28.9549,131.31,131.31,0,0,0,21.01-40.527,170.6612,170.6612,0,0,0,8.05-44.766q.42-20.9355-6.27-35.414-6.69-14.4675-18.1-22.49a52.8291,52.8291,0,0,0-26.15-9.357,70.4646,70.4646,0,0,0-29.95,4.006,73.0354,73.0354,0,0,0-31.06,20.269,126.6013,126.6013,0,0,0-21.24,32.515,205.2593,205.2593,0,0,0-13.42,39.866,357.6911,357.6911,0,0,0-7.14,42.093q-2.1749,20.097-2.42,38.493c-1.13,2.447-2.33,4.9049-3.63,7.38a152.3041,152.3041,0,0,1-19.22,28.2879,143.2643,143.2643,0,0,1-25.7,23.6091,96.6076,96.6076,0,0,1-29.95,14.692q-15.66,4.917-25.93,1.119a32.5393,32.5393,0,0,1-16.31-12.912,62.8756,62.8756,0,0,1-8.72-22.055,154.9636,154.9636,0,0,1-3.13-26.723q25.47,1.7895,45.37-9.1311a107.0676,107.0676,0,0,0,33.75-28.9549,131.091,131.091,0,0,0,21.01-40.527,170.2357,170.2357,0,0,0,8.05-44.766q.435-20.9355-6.26-35.414-6.705-14.4675-18.11-22.49a52.8291,52.8291,0,0,0-26.15-9.357,70.4638,70.4638,0,0,0-29.95,4.006,73.0363,73.0363,0,0,0-31.06,20.269,126.6092,126.6092,0,0,0-21.24,32.515,205.9387,205.9387,0,0,0-13.41,39.866,359.882,359.882,0,0,0-7.15,42.093c-.84,7.787-1.41,15.336-1.83,22.75-2.88,2.441-5.68,4.899-8.68,7.3119a267.6486,267.6486,0,0,1-32.4,22.4961,201.0506,201.0506,0,0,1-35.32,16.483,142.1124,142.1124,0,0,1-37.55,7.793L2759.07,29.55q2.67-9.357-2.68-16.477a27.1745,27.1745,0,0,0-13.87-9.799,29.1373,29.1373,0,0,0-18.1.441q-9.6148,3.1275-15.87,14.251-3.135,16.935-6.48,46.325-3.36,29.3955-6.71,64.142-3.3453,34.7445-6.7,71.709-3.36,36.981-5.81,69.041c-.08.95-.14,1.808-.21,2.747-2.61,2.203-5.14,4.424-7.84,6.6049a268.5376,268.5376,0,0,1-32.41,22.4961,200.6222,200.6222,0,0,1-35.31,16.483,142.184,142.184,0,0,1-37.56,7.793L2597.24,29.55q2.685-9.357-2.68-16.477a27.15,27.15,0,0,0-13.86-9.799,29.169,29.169,0,0,0-18.11.441q-9.6153,3.1275-15.86,14.251-3.1351,16.935-6.48,46.325-3.36,29.3955-6.71,64.142-3.36,34.7445-6.71,71.709-3.345,36.981-5.81,69.041c-.03.43-.06.82-.09,1.249a107.436,107.436,0,0,1-15.33,5.657,81.3229,81.3229,0,0,1-19.22,2.898,173.8737,173.8737,0,0,0,2.9-17.822c.74-6.527,1.35-13.359,1.79-20.49q.6749-10.68.45-21.377-.24-10.6965-1.12-19.603a167.8474,167.8474,0,0,0-8.26-36.3q-6.0447-17.139-16.32-28.729a50.5971,50.5971,0,0,0-25.71-15.585q-15.42-4.008-35.98,2.668-30.42-4.002-54.77,5.571a119.7509,119.7509,0,0,0-42.24,27.836,151.5706,151.5706,0,0,0-29.28,42.986,184.1065,184.1065,0,0,0-15.2,50.772,178.1273,178.1273,0,0,0-1.76,22.004,130.2394,130.2394,0,0,1-15.23,24.547,133.0782,133.0782,0,0,1-24.58,24.05,112.0305,112.0305,0,0,1-25.26,14.2569,121.4858,121.4858,0,0,1-22.35,6.6791,62.9367,62.9367,0,0,1-22.35.4459q-10.7251-1.7713-19.67-10.2439-7.155-6.231-10.95-20.044a138.3148,138.3148,0,0,1-4.47-31.401,257.5837,257.5837,0,0,1,1.34-36.747,210.5667,210.5667,0,0,1,6.93-36.301,143.7456,143.7456,0,0,1,12.51-30.74q7.59-13.5705,17.88-19.371c3.87.599,6.27,2.893,7.16,6.899a48.5716,48.5716,0,0,1,.67,14.257q-.6749,8.2485-2.01,16.924a97.5113,97.5113,0,0,0-1.35,14.478q2.25,12.027,8.72,18.71,6.48,6.678,14.53,7.792,8.04,1.119,15.87-3.786,7.815-4.8915,12.74-15.591a1.8076,1.8076,0,0,0,1.34.447l6.26-56.565q2.6847-11.586-3.58-20.489a23.1588,23.1588,0,0,0-16.54-10.245q-12.96-18.7065-35.09-19.823-22.125-1.11-45.37,14.477-14.31,10.257-25.26,28.282a181.8344,181.8344,0,0,0-17.88,40.087,253.7659,253.7659,0,0,0-9.83,46.551,244.23,244.23,0,0,0-1.13,47.653,193.5416,193.5416,0,0,0,8.28,43.653q6.465,20.4943,18.11,34.294a60.7534,60.7534,0,0,0,22.34,17.603,84.1277,84.1277,0,0,0,26.15,6.899,97.4979,97.4979,0,0,0,27.05-1.113,151.1692,151.1692,0,0,0,25.48-6.905,253.4576,253.4576,0,0,0,32.19-14.698,198.12,198.12,0,0,0,31.74-21.3831A186.534,186.534,0,0,0,2270.69,330.2a114.1591,114.1591,0,0,0,7.82,16.043,94.8576,94.8576,0,0,0,32.63,32.515q20.55,12.468,50.52,12.025a119.8292,119.8292,0,0,0,59.45-16.258q27.27-15.8,44.71-46.545a159.7687,159.7687,0,0,0,51.37-8.539c-.14,1.797-.28,3.69-.41,5.425q-1.7849,23.607-1.8,32.068-.4352,14.6984-2,36.295-1.5752,21.606-2.01,45.433a434.9657,434.9657,0,0,0,1.78,48.111,178.1,178.1,0,0,0,9.39,44.0979,94.1711,94.1711,0,0,0,20.34,33.6281q13.185,13.8,34.65,16.478,22.7853,3.111,39.33-8.019,16.53-11.1375,26.83-30.508,10.2749-19.386,14.52-44.766a216.8268,216.8268,0,0,0,2.46-51.004,194.0164,194.0164,0,0,0-9.39-48.32q-7.6047-22.7235-21.01-37.425,8.0548-2.2125,19.23-8.459,11.16-6.23,23.02-14.031c1.94-1.277,3.85-2.622,5.79-3.933-.73,10.522-1.1,18.026-1.1,22.422q-.4352,14.6984-2.01,36.295-1.56,21.606-2.01,45.433a437.4719,437.4719,0,0,0,1.79,48.111,178.0966,178.0966,0,0,0,9.38,44.0979,94.4576,94.4576,0,0,0,20.34,33.6281q13.1851,13.8,34.65,16.478,22.7849,3.111,39.34-8.019,16.53-11.1375,26.82-30.508,10.2749-19.386,14.53-44.766a217.3522,217.3522,0,0,0,2.46-51.004,194.9428,194.9428,0,0,0-9.39-48.32q-7.6051-22.7235-21.02-37.425,8.0553-2.2125,19.23-8.459,11.1753-6.23,23.02-14.031,6.1652-4.0515,12.25-8.352c1.54,14.523,4.84,27.26,10.1,37.973q9.615,19.6065,26.15,30.294,16.53,10.68,38.9,11.799,22.35,1.1025,48.73-8.244a134.9308,134.9308,0,0,0,34.19-17.812,128.0849,128.0849,0,0,0,26.15-26.0551c.45-.5939.87-1.2379,1.31-1.8369a93.9742,93.9742,0,0,0,4.73,11.855q9.6152,19.6065,26.15,30.294,16.53,10.68,38.89,11.799,22.35,1.1025,48.73-8.244a134.8269,134.8269,0,0,0,34.2-17.812,128.3207,128.3207,0,0,0,26.15-26.0551,208.3583,208.3583,0,0,0,21.23-35.414q9.6153-20.0458,19.45-45.8789A13.0531,13.0531,0,0,0,3247.89,264.0637Z" style="fill:#0d0c23;fill-rule:evenodd"/></svg>