<svg xmlns="http://www.w3.org/2000/svg" viewBox="0 0 630.6821 913.0002"><title>Asset 1</title><path d="M564.724,212.38l-.626-.368-1.45-.443a3.45,3.45,0,0,0,2.076.811Z" style="fill:#0d0c22"/><path d="M573.852,277.606l-.7.196Z" style="fill:#0d0c22"/><path d="M564.992,212.279a1.225,1.225,0,0,1-.261-.062,1.0111,1.0111,0,0,0,0,.174.5144.5144,0,0,0,.261-.112Z" style="fill:#0d0c22"/><path d="M564.727,212.388h.094v-.058Z" style="fill:#0d0c22"/><path d="M573.292,277.488l1.056-.602.393-.221.357-.381a6.0346,6.0346,0,0,0-1.806,1.204Z" style="fill:#0d0c22"/><path d="M566.552,213.805l-1.032-.982-.7-.381a2.909,2.909,0,0,0,1.732,1.363Z" style="fill:#0d0c22"/><path d="M306.964,846.743a5.38,5.38,0,0,0-2.1,1.621l.651-.418C305.957,847.541,306.583,847.062,306.964,846.743Z" style="fill:#0d0c22"/><path d="M457.704,817.085c0-.934-.454-.762-.343,2.555a4.382,4.382,0,0,1,.159-.799C457.582,818.252,457.631,817.674,457.704,817.085Z" style="fill:#0d0c22"/><path d="M442.069,846.743a5.38,5.38,0,0,0-2.1,1.621l.651-.418C441.062,847.541,441.688,847.062,442.069,846.743Z" style="fill:#0d0c22"/><path d="M200.806,853.794a4.43,4.43,0,0,0-2.211-1.032c.663.32,1.326.639,1.768.885Z" style="fill:#0d0c22"/><path d="M176.918,830.918a7.02,7.02,0,0,0-.872-2.751,22.5637,22.5637,0,0,1,.848,2.702Z" style="fill:#0d0c22"/><path d="M337.376,421.762c-32.794,14.039-70.011,29.957-118.244,29.957a223.8833,223.8833,0,0,1-59.694-8.229l33.36,342.501a57.2237,57.2237,0,0,0,57.04,52.52s47.301,2.457,63.084,2.457c16.987,0,67.923-2.457,67.923-2.457a57.2244,57.2244,0,0,0,57.028-52.52l35.73-378.477c-15.967-5.454-32.082-9.077-50.248-9.077C391.936,398.424,366.621,409.246,337.376,421.762Z" style="fill:#fd0"/><path d="M56.1709,275.636l.565.529.3685.221a5.6626,5.6626,0,0,0-.9335-.75Z" style="fill:#0d0c22"/><path d="M627.869,244.025l-5.023-25.339c-4.508-22.735-14.739-44.217-38.076-52.435-7.481-2.628-15.968-3.758-21.704-9.199s-7.431-13.892-8.757-21.728c-2.457-14.383-4.766-28.778-7.284-43.1368-2.174-12.3441-3.894-26.2111-9.556-37.5357C530.1,39.4456,514.808,30.553,499.602,24.67a218.1433,218.1433,0,0,0-23.816-7.37C437.796,7.2774,397.852,3.5926,358.769,1.4923A982.4321,982.4321,0,0,0,218.022,3.8259c-34.833,3.169-71.521,7.0012-104.623,19.05-12.098,4.4095-24.5652,9.7033-33.7649,19.05C68.3464,53.4109,64.6616,71.1716,72.9033,85.4931c5.8588,10.17,15.7831,17.3549,26.3093,22.1089a213.3832,213.3832,0,0,0,42.7194,13.904c40.901,9.04,83.264,12.59,125.049,14.1a952.2294,952.2294,0,0,0,138.794-4.532q17.097-1.88,34.133-4.508c13.376-2.051,21.962-19.541,18.019-31.7258C453.21,80.273,440.535,74.623,426.201,76.8216c-2.113.3316-4.213.6387-6.326.9458l-1.523.2211q-7.284.9211-14.567,1.7195-15.0465,1.6214-30.166,2.6531c-22.576,1.5722-45.213,2.2968-67.837,2.3337-22.232,0-44.475-.6265-66.658-2.0881q-15.1815-.9948-30.289-2.53c-4.581-.479-9.15-.9826-13.72-1.5476l-4.348-.5527-.945-.1351-4.508-.651c-9.212-1.3879-18.424-2.9847-27.538-4.913a4.1392,4.1392,0,0,1,0-8.082h.172c7.898-1.6828,15.857-3.12,23.841-4.3726q3.9915-.6265,8.008-1.2283h.074c4.999-.3316,10.022-1.2283,14.997-1.8179a953.7831,953.7831,0,0,1,130.306-4.5936c21.114.6141,42.216,1.8546,63.231,3.9918,4.52.4668,9.016.9581,13.511,1.5108,1.72.2088,3.451.4544,5.183.6632l3.489.5036q15.255,2.2723,30.35,5.5149c14.911,3.2427,34.06,4.2989,40.692,20.6348,2.113,5.1833,3.071,10.9439,4.238,16.3852l1.486,6.94a2.3481,2.3481,0,0,1,.086.38q5.2695,24.5655,10.551,49.131a9.003,9.003,0,0,1-7.566,10.796h-.099l-2.149.295-2.125.283q-10.0965,1.314-20.217,2.456-19.935,2.2725-39.931,3.931-39.7335,3.303-79.628,4.335-20.328.5415-40.643.504a1410.64,1410.64,0,0,1-161.321-9.384c-5.797-.688-11.594-1.425-17.392-2.174,4.496.577-3.267-.442-4.839-.663q-5.5275-.774-11.054-1.609c-12.369-1.855-24.6639-4.14-37.008-6.142-14.9234-2.456-29.1958-1.228-42.6944,6.142a62.0983,62.0983,0,0,0-25.7075,26.653c-5.822,12.037-7.5538,25.142-10.1578,38.076s-6.6572,26.85-5.1218,40.127c3.304,28.656,23.337,51.944,52.152,57.152,27.1078,4.913,54.3625,8.892,81.6915,12.282a1509.621,1509.621,0,0,0,323.5,4.692q13.155-1.2285,26.273-2.677a18.4234,18.4234,0,0,1,20.34,20.192l-2.727,26.506q-8.241,80.3415-16.483,160.669-8.598,84.357-17.307,168.702-2.4555,23.754-4.913,47.497c-1.572,15.587-1.793,31.665-4.753,47.067-4.667,24.221-21.065,39.096-44.991,44.537a313.9318,313.9318,0,0,1-66.793,7.812c-24.922.135-49.831-.971-74.752-.836-26.604.148-59.19-2.309-79.727-22.108-18.043-17.393-20.536-44.623-22.993-68.169q-4.9125-46.7595-9.74-93.508L141.06,507.979,129.379,395.851c-.197-1.855-.393-3.685-.577-5.552-1.401-13.376-10.871-26.469-25.794-25.794-12.7739.565-27.292,11.423-25.7935,25.794l8.6592,83.129L103.782,645.385q7.6515,73.2645,15.267,146.556c.983,9.359,1.904,18.743,2.936,28.102,5.613,51.145,44.672,78.708,93.041,86.47,28.25,4.545,57.187,5.478,85.855,5.945,36.75.59,73.868,2.002,110.016-4.655,53.564-9.826,93.753-45.593,99.489-101.074q2.457-24.024,4.913-48.062,8.1675-79.4925,16.311-158.998l17.761-173.186,8.143-79.37a18.4237,18.4237,0,0,1,14.838-16.201c15.316-2.984,29.957-8.082,40.852-19.738C630.547,292.615,633.998,268.418,627.869,244.025ZM51.7034,261.147c.2334-.111-.1965,1.892-.3807,2.825C51.2858,262.56,51.36,261.307,51.7034,261.147ZM53.19,272.644c.1228-.086.4912.405.872.994-.5773-.54-.9457-.945-.8843-.994Zm1.4616,1.928c.5281.897.8106,1.462,0,0Zm2.9355,2.383h.0737c0,.086.1351.172.1842.258a1.8935,1.8935,0,0,0-.27-.258Zm514.0522-3.562c-5.502,5.232-13.793,7.664-21.986,8.88-91.874,13.634-185.086,20.537-277.968,17.491-66.473-2.273-132.247-9.655-198.0571-18.952-6.4484-.909-13.4372-2.089-17.8712-6.842-8.3522-8.966-4.25-27.022-2.0758-37.855,1.99-9.924,5.7974-23.153,17.601-24.565,18.424-2.162,39.82,5.613,58.0481,8.377q32.9175,5.0235,66.08,8.045c94.355,8.597,190.295,7.259,284.232-5.319q25.683-3.4515,51.182-8.02c15.145-2.715,31.935-7.812,41.086,7.873,6.276,10.686,7.111,24.983,6.141,37.057a20.6568,20.6568,0,0,1-6.424,13.83Z" style="fill:#0d0c22"/></svg>